<svg width="179" height="6" viewBox="0 0 179 6" fill="none" xmlns="http://www.w3.org/2000/svg">
<path d="M5.74012 3.2514C8.32381 3.47795 10.4002 4.468 13.1356 4.66477C17.0292 4.94487 21.053 4.82737 24.9639 4.82737C32.769 4.82737 40.5742 4.82737 48.3793 4.82737C87.7782 4.82737 127.25 5.24725 166.641 4.77734C169.875 4.73876 173.144 4.70132 176.363 4.48966C177.119 4.4399 179.198 4.21246 177.065 4.05189C169.111 3.45313 160.782 4.0594 152.772 3.86428C144.95 3.67376 137.178 3.15926 129.378 2.80112C110.847 1.95018 92.3051 1.7518 73.7257 1.52533C49.4772 1.22975 25.2535 1 1 1" stroke="#FF5925" stroke-width="2" stroke-linecap="round"/>
</svg>
